<svg id="Layer_1" height="512" viewBox="0 0 36 36" width="512" xmlns="http://www.w3.org/2000/svg" data-name="Layer 1"><circle cx="18" cy="13.71" fill="#072a30" r="2.86"/><g fill-rule="evenodd"><path d="m22.57 24v.86h-9.14v-.86a1.18 1.18 0 0 1 .33-.81 1.13 1.13 0 0 1 .81-.33h6.86a1.15 1.15 0 0 1 .81.33 1.18 1.18 0 0 1 .33.81z" fill="#072a30"/><path d="m27.87 6.11a9.13 9.13 0 0 1 -4.37-1.11l-5.5-3-5.5 3a9.13 9.13 0 0 1 -4.37 1.11h-4.07v12.69a13.72 13.72 0 0 0 8 12.47l5.94 2.73 6-2.73a13.72 13.72 0 0 0 8-12.47v-12.69zm-9.87 2.46a5.14 5.14 0 1 1 -5.14 5.14 5.15 5.15 0 0 1 5.14-5.14zm6.86 17.43a1.15 1.15 0 0 1 -1.14 1.14h-11.43a1.15 1.15 0 0 1 -1.15-1.14v-2a3.43 3.43 0 0 1 3.43-3.43h6.86a3.43 3.43 0 0 1 3.43 3.43z" fill="#43d685"/></g></svg>